<svg xmlns="http://www.w3.org/2000/svg" width="1500" height="650" viewBox="0 0 1500 650" role="img" aria-labelledby="title desc">
  <title id="title">Main pilot results</title>
  <desc id="desc">Source-backed pilot results shown as three panels: parse yield, paired verifier revision, and hard-failure attribution.</desc>
  <defs>
    <marker id="arrow" markerWidth="12" markerHeight="12" refX="10" refY="6" orient="auto" markerUnits="strokeWidth">
      <path d="M2,2 L10,6 L2,10 Z" fill="#334155" />
    </marker>
    <style>
      .title { font: 700 34px Arial, Helvetica, sans-serif; fill: #111827; }
      .subtitle { font: 400 18px Arial, Helvetica, sans-serif; fill: #475569; }
      .panel-title { font: 700 22px Arial, Helvetica, sans-serif; fill: #111827; }
      .axis-label { font: 700 14px Arial, Helvetica, sans-serif; fill: #334155; }
      .tick { font: 400 13px Arial, Helvetica, sans-serif; fill: #64748b; }
      .value { font: 700 15px Arial, Helvetica, sans-serif; fill: #111827; }
      .mini { font: 700 13px Arial, Helvetica, sans-serif; fill: #991b1b; }
      .tiny { font: 400 11px Arial, Helvetica, sans-serif; fill: #92400e; }
      .note { font: 400 15px Arial, Helvetica, sans-serif; fill: #475569; }
      .big { font: 700 46px Arial, Helvetica, sans-serif; fill: #111827; }
      .huge { font: 700 64px Arial, Helvetica, sans-serif; fill: #111827; }
      .box { fill: #f8fafc; stroke: #cbd5e1; stroke-width: 2; rx: 14; }
      .line { stroke: #334155; stroke-width: 2.5; fill: none; marker-end: url(#arrow); }
      .softline { stroke: #94a3b8; stroke-width: 1.5; fill: none; }
    </style>
  </defs>
  <rect width="1500" height="650" fill="#ffffff" />
  <text x="750" y="46" text-anchor="middle" class="title">Main Pilot Results: Three Reliability Layers</text>
  <text x="750" y="76" text-anchor="middle" class="subtitle">Parseability, paired revision, and attribution are reported with separate denominators</text>

  <rect x="55" y="112" width="510" height="455" class="box" />
  <text x="84" y="148" class="panel-title">A. End-to-end parse yield</text>
  <text x="84" y="176" class="note">Bars separate parseable traces from schema failures.</text>
  <line x1="105" y1="418" x2="530" y2="418" stroke="#334155" stroke-width="2" />
  <line x1="105" y1="168" x2="105" y2="418" stroke="#334155" stroke-width="2" />
  <text x="93" y="172" text-anchor="end" class="tick">100%</text>
  <text x="93" y="297" text-anchor="end" class="tick">50%</text>
  <text x="93" y="422" text-anchor="end" class="tick">0%</text>
  <line x1="105" y1="293" x2="530" y2="293" stroke="#e2e8f0" stroke-width="1.5" />
  <g>
      <rect x="105" y="168" width="58" height="120" rx="8" fill="#fde68a" stroke="#f59e0b" opacity="0.80" />
      <rect x="105" y="288" width="58" height="130" rx="8" fill="#2563eb" opacity="0.88" />
      <rect x="105" y="168" width="58" height="250" rx="8" fill="none" stroke="#64748b" opacity="0.35" />
      <text x="134" y="276" text-anchor="middle" class="value">26/50</text>
      <text x="134" y="185" text-anchor="middle" class="tiny">fail 24</text>
      <text x="134" y="446" text-anchor="middle" class="axis-label">Plain</text>
      <rect x="103" y="462" width="62" height="28" rx="8" fill="#fff1f2" stroke="#ef4444" />
      <text x="134" y="481" text-anchor="middle" class="mini">H=26</text>
      <text x="134" y="510" text-anchor="middle" class="tick">52%</text>
    </g>
<g>
      <rect x="195" y="168" width="58" height="90" rx="8" fill="#fde68a" stroke="#f59e0b" opacity="0.80" />
      <rect x="195" y="258" width="58" height="160" rx="8" fill="#2563eb" opacity="0.88" />
      <rect x="195" y="168" width="58" height="250" rx="8" fill="none" stroke="#64748b" opacity="0.35" />
      <text x="224" y="246" text-anchor="middle" class="value">32/50</text>
      <text x="224" y="185" text-anchor="middle" class="tiny">fail 18</text>
      <text x="224" y="446" text-anchor="middle" class="axis-label">Cand.</text>
      <rect x="193" y="462" width="62" height="28" rx="8" fill="#fff1f2" stroke="#ef4444" />
      <text x="224" y="481" text-anchor="middle" class="mini">H=35</text>
      <text x="224" y="510" text-anchor="middle" class="tick">64%</text>
    </g>
<g>
      <rect x="285" y="168" width="58" height="70" rx="8" fill="#fde68a" stroke="#f59e0b" opacity="0.80" />
      <rect x="285" y="238" width="58" height="180" rx="8" fill="#2563eb" opacity="0.88" />
      <rect x="285" y="168" width="58" height="250" rx="8" fill="none" stroke="#64748b" opacity="0.35" />
      <text x="314" y="226" text-anchor="middle" class="value">36/50</text>
      <text x="314" y="185" text-anchor="middle" class="tiny">fail 14</text>
      <text x="314" y="446" text-anchor="middle" class="axis-label">ToM</text>
      <rect x="283" y="462" width="62" height="28" rx="8" fill="#fff1f2" stroke="#ef4444" />
      <text x="314" y="481" text-anchor="middle" class="mini">H=1</text>
      <text x="314" y="510" text-anchor="middle" class="tick">72%</text>
    </g>
<g>
      <rect x="375" y="168" width="58" height="5" rx="8" fill="#fde68a" stroke="#f59e0b" opacity="0.80" />
      <rect x="375" y="173" width="58" height="245" rx="8" fill="#2563eb" opacity="0.88" />
      <rect x="375" y="168" width="58" height="250" rx="8" fill="none" stroke="#64748b" opacity="0.35" />
      <text x="404" y="161" text-anchor="middle" class="value">49/50</text>
      <text x="404" y="185" text-anchor="middle" class="tiny">fail 1</text>
      <text x="404" y="446" text-anchor="middle" class="axis-label">Repair</text>
      <rect x="373" y="462" width="62" height="28" rx="8" fill="#fff1f2" stroke="#ef4444" />
      <text x="404" y="481" text-anchor="middle" class="mini">H=1</text>
      <text x="404" y="510" text-anchor="middle" class="tick">98%</text>
    </g>
<g>
      <rect x="465" y="168" width="58" height="0" rx="8" fill="#fde68a" stroke="#f59e0b" opacity="0.80" />
      <rect x="465" y="168" width="58" height="250" rx="8" fill="#2563eb" opacity="0.88" />
      <rect x="465" y="168" width="58" height="250" rx="8" fill="none" stroke="#64748b" opacity="0.35" />
      <text x="494" y="156" text-anchor="middle" class="value">32/32</text>
      <text x="494" y="185" text-anchor="middle" class="tiny">fail 0</text>
      <text x="494" y="446" text-anchor="middle" class="axis-label">Revision</text>
      <rect x="463" y="462" width="62" height="28" rx="8" fill="#fff1f2" stroke="#ef4444" />
      <text x="494" y="481" text-anchor="middle" class="mini">H=10</text>
      <text x="494" y="510" text-anchor="middle" class="tick">100%</text>
    </g>

  <rect x="595" y="112" width="395" height="455" class="box" />
  <text x="624" y="148" class="panel-title">B. Paired verifier revision</text>
  <text x="624" y="176" class="note">Same 32 candidate traces, before vs. after feedback.</text>
  <g transform="translate(628,230)">
    <rect x="0" y="0" width="128" height="126" rx="16" fill="#fef2f2" stroke="#dc2626" stroke-width="2" />
    <text x="64" y="34" text-anchor="middle" class="note">before</text>
    <text x="64" y="88" text-anchor="middle" class="huge">35</text>
    <text x="64" y="112" text-anchor="middle" class="mini">hard failures</text>
  </g>
  <path d="M770,294 C800,264 828,264 858,294" class="line" />
  <text x="814" y="258" text-anchor="middle" class="value">-25</text>
  <g transform="translate(872,230)">
    <rect x="0" y="0" width="128" height="126" rx="16" fill="#ecfdf5" stroke="#059669" stroke-width="2" />
    <text x="64" y="34" text-anchor="middle" class="note">after</text>
    <text x="64" y="88" text-anchor="middle" class="huge">10</text>
    <text x="64" y="112" text-anchor="middle" class="mini">hard failures</text>
  </g>
  <text x="793" y="400" text-anchor="middle" class="value">McNemar: before-only 20, after-only 0, p &lt; 0.001</text>
  <text x="793" y="430" text-anchor="middle" class="note">Bootstrap 95% CI for hard-failure delta: -32 to -18.</text>

  <rect x="1020" y="112" width="425" height="455" class="box" />
  <text x="1049" y="148" class="panel-title">C. What failures disappear?</text>
  <text x="1049" y="176" class="note">Waterfall attribution decomposes the drop.</text>
  <text x="1049" y="242" class="big">25</text>
  <text x="1125" y="235" class="value">removed hard failures</text>
  <text x="1125" y="262" class="note">from 35 before to 10 after</text>
  <g transform="translate(1052,304)">
    <line x1="0" y1="150" x2="344" y2="150" stroke="#cbd5e1" stroke-width="2" />
    <rect x="0" y="0" width="58" height="150" rx="8" fill="#fee2e2" stroke="#dc2626" />
    <text x="29" y="30" text-anchor="middle" class="value">35</text>
    <text x="29" y="174" text-anchor="middle" class="tick">before</text>
    <rect x="92" y="43" width="72" height="86" rx="8" fill="#22c55e" opacity="0.84" stroke="#15803d" />
    <text x="128" y="69" text-anchor="middle" class="value">-20</text>
    <text x="128" y="174" text-anchor="middle" class="tick">public</text>
    <rect x="198" y="43" width="62" height="21" rx="8" fill="#0ea5e9" opacity="0.84" stroke="#0284c7" />
    <text x="229" y="69" text-anchor="middle" class="value">-5</text>
    <text x="229" y="174" text-anchor="middle" class="tick">hidden</text>
    <rect x="296" y="107" width="58" height="43" rx="8" fill="#f1f5f9" stroke="#64748b" />
    <text x="325" y="135" text-anchor="middle" class="value">10</text>
    <text x="325" y="174" text-anchor="middle" class="tick">after</text>
  </g>
  <rect x="1052" y="506" width="18" height="18" rx="4" fill="#22c55e" opacity="0.86" />
  <text x="1080" y="520" class="value">public history: 29 to 9</text>
  <rect x="1258" y="506" width="18" height="18" rx="4" fill="#0ea5e9" opacity="0.86" />
  <text x="1286" y="520" class="value">hidden: 6 to 1</text>

  <text x="750" y="618" text-anchor="middle" class="tick">Sources: docs/research/experiments/pilot-metrics-summary/pilot-metrics-summary.json and docs/research/experiments/pilot-verifier-attribution/verifier-attribution.json</text>
</svg>
