<svg xmlns="http://www.w3.org/2000/svg" width="1500" height="650" viewBox="0 0 1500 650" role="img" aria-labelledby="title desc">
  <title id="title">Main pilot results</title>
  <desc id="desc">Source-backed pilot results shown as three panels: parse yield, paired verifier revision, and hard-failure attribution.</desc>
  <defs>
    <marker id="arrow" markerWidth="12" markerHeight="12" refX="10" refY="6" orient="auto" markerUnits="strokeWidth">
      <path d="M2,2 L10,6 L2,10 Z" fill="#334155" />
    </marker>
    <style>
      .title { font: 700 34px Arial, Helvetica, sans-serif; fill: #111827; }
      .subtitle { font: 400 18px Arial, Helvetica, sans-serif; fill: #475569; }
      .panel-title { font: 700 22px Arial, Helvetica, sans-serif; fill: #111827; }
      .axis-label { font: 700 14px Arial, Helvetica, sans-serif; fill: #334155; }
      .tick { font: 400 13px Arial, Helvetica, sans-serif; fill: #64748b; }
      .value { font: 700 15px Arial, Helvetica, sans-serif; fill: #111827; }
      .mini { font: 700 13px Arial, Helvetica, sans-serif; fill: #991b1b; }
      .note { font: 400 15px Arial, Helvetica, sans-serif; fill: #475569; }
      .big { font: 700 46px Arial, Helvetica, sans-serif; fill: #111827; }
      .huge { font: 700 64px Arial, Helvetica, sans-serif; fill: #111827; }
      .box { fill: #f8fafc; stroke: #cbd5e1; stroke-width: 2; rx: 14; }
      .line { stroke: #334155; stroke-width: 2.5; fill: none; marker-end: url(#arrow); }
      .softline { stroke: #94a3b8; stroke-width: 1.5; fill: none; }
    </style>
  </defs>
  <rect width="1500" height="650" fill="#ffffff" />
  <text x="750" y="46" text-anchor="middle" class="title">Main Pilot Results: Reliability Has Three Layers</text>
  <text x="750" y="76" text-anchor="middle" class="subtitle">End-to-end parseability, paired revision, and semantic attribution are separated to avoid denominator mixing</text>

  <rect x="55" y="112" width="510" height="455" class="box" />
  <text x="84" y="148" class="panel-title">A. End-to-end parse yield</text>
  <text x="84" y="176" class="note">Blue bars are parseable traces; red chips show hard failures.</text>
  <line x1="105" y1="418" x2="530" y2="418" stroke="#334155" stroke-width="2" />
  <line x1="105" y1="168" x2="105" y2="418" stroke="#334155" stroke-width="2" />
  <text x="93" y="172" text-anchor="end" class="tick">100%</text>
  <text x="93" y="297" text-anchor="end" class="tick">50%</text>
  <text x="93" y="422" text-anchor="end" class="tick">0%</text>
  <line x1="105" y1="293" x2="530" y2="293" stroke="#e2e8f0" stroke-width="1.5" />
  <g>
      <rect x="105" y="168" width="58" height="250" rx="8" fill="#e0e7ff" stroke="#bfdbfe" />
      <rect x="105" y="288" width="58" height="130" rx="8" fill="#2563eb" opacity="0.88" />
      <text x="134" y="276" text-anchor="middle" class="value">26/50</text>
      <text x="134" y="446" text-anchor="middle" class="axis-label">Plain</text>
      <rect x="103" y="462" width="62" height="28" rx="8" fill="#fff1f2" stroke="#ef4444" />
      <text x="134" y="481" text-anchor="middle" class="mini">H=26</text>
      <text x="134" y="510" text-anchor="middle" class="tick">52%</text>
    </g>
<g>
      <rect x="195" y="168" width="58" height="250" rx="8" fill="#e0e7ff" stroke="#bfdbfe" />
      <rect x="195" y="258" width="58" height="160" rx="8" fill="#2563eb" opacity="0.88" />
      <text x="224" y="246" text-anchor="middle" class="value">32/50</text>
      <text x="224" y="446" text-anchor="middle" class="axis-label">Cand.</text>
      <rect x="193" y="462" width="62" height="28" rx="8" fill="#fff1f2" stroke="#ef4444" />
      <text x="224" y="481" text-anchor="middle" class="mini">H=35</text>
      <text x="224" y="510" text-anchor="middle" class="tick">64%</text>
    </g>
<g>
      <rect x="285" y="168" width="58" height="250" rx="8" fill="#e0e7ff" stroke="#bfdbfe" />
      <rect x="285" y="238" width="58" height="180" rx="8" fill="#2563eb" opacity="0.88" />
      <text x="314" y="226" text-anchor="middle" class="value">36/50</text>
      <text x="314" y="446" text-anchor="middle" class="axis-label">ToM</text>
      <rect x="283" y="462" width="62" height="28" rx="8" fill="#fff1f2" stroke="#ef4444" />
      <text x="314" y="481" text-anchor="middle" class="mini">H=1</text>
      <text x="314" y="510" text-anchor="middle" class="tick">72%</text>
    </g>
<g>
      <rect x="375" y="168" width="58" height="250" rx="8" fill="#e0e7ff" stroke="#bfdbfe" />
      <rect x="375" y="173" width="58" height="245" rx="8" fill="#2563eb" opacity="0.88" />
      <text x="404" y="161" text-anchor="middle" class="value">49/50</text>
      <text x="404" y="446" text-anchor="middle" class="axis-label">ToM+repair</text>
      <rect x="373" y="462" width="62" height="28" rx="8" fill="#fff1f2" stroke="#ef4444" />
      <text x="404" y="481" text-anchor="middle" class="mini">H=1</text>
      <text x="404" y="510" text-anchor="middle" class="tick">98%</text>
    </g>
<g>
      <rect x="465" y="168" width="58" height="250" rx="8" fill="#e0e7ff" stroke="#bfdbfe" />
      <rect x="465" y="168" width="58" height="250" rx="8" fill="#2563eb" opacity="0.88" />
      <text x="494" y="156" text-anchor="middle" class="value">32/32</text>
      <text x="494" y="446" text-anchor="middle" class="axis-label">Revision</text>
      <rect x="463" y="462" width="62" height="28" rx="8" fill="#fff1f2" stroke="#ef4444" />
      <text x="494" y="481" text-anchor="middle" class="mini">H=10</text>
      <text x="494" y="510" text-anchor="middle" class="tick">100%</text>
    </g>
  <text x="84" y="535" class="note">ToM + repair reaches 49/50; revision uses only the 32 parseable candidate traces.</text>

  <rect x="595" y="112" width="395" height="455" class="box" />
  <text x="624" y="148" class="panel-title">B. Paired verifier revision</text>
  <text x="624" y="176" class="note">Same 32 candidate traces, before vs. after feedback.</text>
  <g transform="translate(628,230)">
    <rect x="0" y="0" width="128" height="126" rx="16" fill="#fef2f2" stroke="#dc2626" stroke-width="2" />
    <text x="64" y="34" text-anchor="middle" class="note">before</text>
    <text x="64" y="88" text-anchor="middle" class="huge">35</text>
    <text x="64" y="112" text-anchor="middle" class="mini">hard failures</text>
  </g>
  <path d="M770,294 C800,264 828,264 858,294" class="line" />
  <text x="814" y="258" text-anchor="middle" class="value">-25</text>
  <g transform="translate(872,230)">
    <rect x="0" y="0" width="128" height="126" rx="16" fill="#ecfdf5" stroke="#059669" stroke-width="2" />
    <text x="64" y="34" text-anchor="middle" class="note">after</text>
    <text x="64" y="88" text-anchor="middle" class="huge">10</text>
    <text x="64" y="112" text-anchor="middle" class="mini">hard failures</text>
  </g>
  <text x="793" y="400" text-anchor="middle" class="value">McNemar: before-only 20, after-only 0, p &lt; 0.001</text>
  <text x="793" y="430" text-anchor="middle" class="note">Bootstrap 95% CI for hard-failure delta: -32 to -18.</text>
  <text x="793" y="520" text-anchor="middle" class="note">The revision denominator is deliberately narrower than provider completion.</text>

  <rect x="1020" y="112" width="425" height="455" class="box" />
  <text x="1049" y="148" class="panel-title">C. What failures disappear?</text>
  <text x="1049" y="176" class="note">Hard-failure-count drop is concentrated in semantic checks.</text>
  <text x="1049" y="242" class="big">25</text>
  <text x="1125" y="235" class="value">removed hard failures</text>
  <text x="1125" y="262" class="note">from 35 before to 10 after</text>
  <g transform="translate(1052,312)">
    <rect x="0" y="0" width="272" height="48" rx="10" fill="#22c55e" opacity="0.86" />
    <rect x="272" y="0" width="68" height="48" rx="10" fill="#0ea5e9" opacity="0.86" />
    <rect x="0" y="0" width="340" height="48" rx="10" fill="none" stroke="#334155" stroke-width="1.2" />
    <text x="136" y="31" text-anchor="middle" class="value">80%</text>
    <text x="306" y="31" text-anchor="middle" class="value">20%</text>
  </g>
  <rect x="1052" y="396" width="18" height="18" rx="4" fill="#22c55e" opacity="0.86" />
  <text x="1080" y="410" class="value">public history: 29 to 9</text>
  <rect x="1052" y="430" width="18" height="18" rx="4" fill="#0ea5e9" opacity="0.86" />
  <text x="1080" y="444" class="value">hidden information: 6 to 1</text>
  <text x="1052" y="514" class="note">Attribution is semantic rather than a pure formatting gain.</text>

  <text x="750" y="618" text-anchor="middle" class="tick">Sources: docs/research/experiments/pilot-metrics-summary/pilot-metrics-summary.json and docs/research/experiments/pilot-verifier-attribution/verifier-attribution.json</text>
</svg>
