<svg xmlns="http://www.w3.org/2000/svg" width="1500" height="590" viewBox="0 0 1500 590" role="img" aria-labelledby="title desc">
  <title id="title">Trace-contract verifier architecture</title>
  <desc id="desc">A four-panel method diagram showing decision-point evidence, structured trace fields, rule-grounded verifier labels, and same-id revision accounting.</desc>
  <defs>
    <marker id="arrow" markerWidth="12" markerHeight="12" refX="10" refY="6" orient="auto" markerUnits="strokeWidth">
      <path d="M2,2 L10,6 L2,10 Z" fill="#334155" />
    </marker>
    <marker id="arrow-red" markerWidth="12" markerHeight="12" refX="10" refY="6" orient="auto" markerUnits="strokeWidth">
      <path d="M2,2 L10,6 L2,10 Z" fill="#dc2626" />
    </marker>
    <marker id="arrow-orange" markerWidth="12" markerHeight="12" refX="10" refY="6" orient="auto" markerUnits="strokeWidth">
      <path d="M2,2 L10,6 L2,10 Z" fill="#c2410c" />
    </marker>
    <style>
      .title { font: 700 32px Arial, Helvetica, sans-serif; fill: #111827; }
      .subtitle { font: 400 17px Arial, Helvetica, sans-serif; fill: #475569; }
      .panel-title { font: 700 21px Arial, Helvetica, sans-serif; fill: #111827; }
      .box-title { font: 700 18px Arial, Helvetica, sans-serif; fill: #111827; }
      .text { font: 400 15px Arial, Helvetica, sans-serif; fill: #334155; }
      .small { font: 400 14px Arial, Helvetica, sans-serif; fill: #64748b; }
      .tiny { font: 400 12px Arial, Helvetica, sans-serif; fill: #64748b; }
      .panel { fill: #f8fafc; stroke: #cbd5e1; stroke-width: 2; }
      .decision { fill: #f8fafc; stroke: #94a3b8; stroke-width: 2; }
      .model { fill: #eff6ff; stroke: #2563eb; stroke-width: 2.3; }
      .verifier { fill: #ecfdf5; stroke: #059669; stroke-width: 2.3; }
      .artifact { fill: #fff7ed; stroke: #ea580c; stroke-width: 2; }
      .fail { fill: #fef2f2; stroke: #dc2626; stroke-width: 2.3; }
      .metric { fill: #ecfeff; stroke: #0891b2; stroke-width: 2.3; }
      .line { stroke: #334155; stroke-width: 2.7; fill: none; marker-end: url(#arrow); }
      .thin { stroke: #334155; stroke-width: 2; fill: none; marker-end: url(#arrow); }
      .redline { stroke: #dc2626; stroke-width: 2.4; fill: none; marker-end: url(#arrow-red); }
      .feedback { stroke: #c2410c; stroke-width: 2.4; fill: none; stroke-dasharray: 8 6; marker-end: url(#arrow-orange); }
    </style>
  </defs>
  <rect width="1500" height="590" fill="#ffffff" />
  <text x="750" y="42" text-anchor="middle" class="title">Trace-Contract Verifier Architecture</text>
  <text x="750" y="72" text-anchor="middle" class="subtitle">Structured commitments make zero-communication reasoning checkable without using the verifier as an action oracle</text>

  <rect x="34" y="108" width="340" height="365" rx="17" class="panel" />
  <rect x="402" y="108" width="340" height="365" rx="17" class="panel" />
  <rect x="770" y="108" width="340" height="365" rx="17" class="panel" />
  <rect x="1138" y="108" width="328" height="365" rx="17" class="panel" />

  <text x="58" y="148" class="panel-title">A. Decision point</text>
  <text x="426" y="148" class="panel-title">B. Trace contract</text>
  <text x="794" y="148" class="panel-title">C. Rule-grounded verifier</text>
  <text x="1162" y="148" class="panel-title">D. Same-id revision</text>

  <g transform="translate(70,182)">
    <rect width="270" height="62" rx="12" class="model" />
    <text x="135" y="25" text-anchor="middle" class="box-title">State packet</text>
    <text x="135" y="48" text-anchor="middle" class="text">d_t=(p_t,h_t,o_t,A_t,z_t)</text>
    <rect y="80" width="270" height="76" rx="12" class="decision" />
    <text x="135" y="106" text-anchor="middle" class="box-title">Observable evidence</text>
    <text x="135" y="130" text-anchor="middle" class="small">public history h_t, hand counts, table context</text>
    <rect y="174" width="270" height="64" rx="12" class="fail" />
    <text x="135" y="199" text-anchor="middle" class="box-title">Evidence boundary</text>
    <text x="135" y="222" text-anchor="middle" class="small">hidden cards cannot be cited as public facts</text>
    <rect y="256" width="270" height="52" rx="12" class="metric" />
    <text x="135" y="288" text-anchor="middle" class="text">dynamic legal candidates A_t</text>
  </g>

  <g transform="translate(438,182)">
    <rect width="270" height="76" rx="12" class="model" />
    <text x="135" y="28" text-anchor="middle" class="box-title">LLM actor</text>
    <text x="135" y="53" text-anchor="middle" class="text">selects a_t in A_t; emits trace r0</text>
    <rect y="94" width="270" height="138" rx="12" class="artifact" />
    <text x="135" y="122" text-anchor="middle" class="box-title">Structured trace fields</text>
    <text x="135" y="150" text-anchor="middle" class="small">action, objective, partner belief</text>
    <text x="135" y="174" text-anchor="middle" class="small">opponent belief + evidence ids</text>
    <text x="135" y="198" text-anchor="middle" class="small">rationale, risk, confidence</text>
    <rect y="254" width="270" height="54" rx="12" class="metric" />
    <text x="135" y="287" text-anchor="middle" class="text">schema gate: parseable traces enter audit</text>
  </g>

  <g transform="translate(806,182)">
    <rect width="270" height="68" rx="12" class="verifier" />
    <text x="135" y="27" text-anchor="middle" class="box-title">Verifier map</text>
    <text x="135" y="50" text-anchor="middle" class="text">V(d_t,r_t,a_t) -> (y_t,e_t)</text>
    <rect y="86" width="270" height="74" rx="12" class="artifact" />
    <text x="135" y="112" text-anchor="middle" class="box-title">Hard labels</text>
    <text x="135" y="136" text-anchor="middle" class="small">legal action, beats table, public history, hidden-info</text>
    <rect y="178" width="270" height="74" rx="12" class="metric" />
    <text x="135" y="204" text-anchor="middle" class="box-title">Soft labels</text>
    <text x="135" y="228" text-anchor="middle" class="small">partner/opponent consistency, objective, reason-action</text>
    <rect y="270" width="270" height="38" rx="11" class="decision" />
    <text x="135" y="294" text-anchor="middle" class="small">diagnoses commitments; never chooses the move</text>
  </g>

  <g transform="translate(1174,182)">
    <rect width="256" height="58" rx="12" class="artifact" />
    <text x="128" y="25" text-anchor="middle" class="box-title">Feedback vector</text>
    <text x="128" y="45" text-anchor="middle" class="small">labels y_t + issue codes e_t</text>
    <rect y="76" width="256" height="58" rx="12" class="model" />
    <text x="128" y="100" text-anchor="middle" class="box-title">Bounded revision</text>
    <text x="128" y="121" text-anchor="middle" class="small">same state d_t, repaired trace r1</text>
    <rect y="152" width="256" height="58" rx="12" class="verifier" />
    <text x="128" y="176" text-anchor="middle" class="box-title">Recheck</text>
    <text x="128" y="197" text-anchor="middle" class="small">same labels, same decision id</text>
    <rect y="228" width="256" height="80" rx="12" class="metric" />
    <text x="128" y="256" text-anchor="middle" class="box-title">Paired evidence</text>
    <text x="128" y="276" text-anchor="middle" class="text">32 paired traces</text>
    <text x="128" y="300" text-anchor="middle" class="text">hard failures 35 to 10</text>
  </g>

  <path d="M374,285 H398" class="line" />
  <path d="M742,285 H766" class="line" />
  <path d="M1110,285 H1134" class="feedback" />
  <path d="M573,490 C650,535 840,535 955,490" class="redline" />
  <text x="765" y="552" text-anchor="middle" class="small">Schema failures remain end-to-end failures; paired before/after evidence uses only first-pass parseable traces.</text>
</svg>
