<svg xmlns="http://www.w3.org/2000/svg" width="1500" height="700" viewBox="0 0 1500 700" role="img" aria-labelledby="title desc">
  <title id="title">Verifier-grounded multi-agent reasoning teaser</title>
  <desc id="desc">A paper teaser contrasting explicit communication with zero-communication team play, then showing the trace contract, verifier map, and same-id paired evidence after verifier feedback.</desc>
  <defs>
    <marker id="arrow" markerWidth="12" markerHeight="12" refX="10" refY="6" orient="auto" markerUnits="strokeWidth">
      <path d="M2,2 L10,6 L2,10 Z" fill="#334155" />
    </marker>
    <marker id="arrow-orange" markerWidth="12" markerHeight="12" refX="10" refY="6" orient="auto" markerUnits="strokeWidth">
      <path d="M2,2 L10,6 L2,10 Z" fill="#c2410c" />
    </marker>
    <style>
      .title { font: 700 34px Arial, Helvetica, sans-serif; fill: #111827; }
      .subtitle { font: 400 18px Arial, Helvetica, sans-serif; fill: #475569; }
      .kicker { font: 700 13px Arial, Helvetica, sans-serif; fill: #2563eb; letter-spacing: 0; }
      .panel-title { font: 700 21px Arial, Helvetica, sans-serif; fill: #111827; }
      .box-title { font: 700 16px Arial, Helvetica, sans-serif; fill: #111827; }
      .label { font: 700 14px Arial, Helvetica, sans-serif; fill: #334155; }
      .text { font: 400 14px Arial, Helvetica, sans-serif; fill: #475569; }
      .small { font: 400 12px Arial, Helvetica, sans-serif; fill: #64748b; }
      .tiny { font: 400 10px Arial, Helvetica, sans-serif; fill: #64748b; }
      .formula { font: 700 20px Arial, Helvetica, sans-serif; fill: #111827; }
      .bigMetric { font: 700 38px Arial, Helvetica, sans-serif; fill: #111827; }
      .metricTag { font: 700 11px Arial, Helvetica, sans-serif; fill: #64748b; }
      .metricUnit { font: 400 10px Arial, Helvetica, sans-serif; fill: #64748b; }
      .panel { fill: #f8fafc; stroke: #cbd5e1; stroke-width: 2; }
      .subpanel { fill: #ffffff; stroke: #cbd5e1; stroke-width: 1.5; }
      .blue { fill: #eff6ff; stroke: #2563eb; stroke-width: 2; }
      .red { fill: #fef2f2; stroke: #dc2626; stroke-width: 2; }
      .orange { fill: #fff7ed; stroke: #ea580c; stroke-width: 2; }
      .green { fill: #ecfdf5; stroke: #059669; stroke-width: 2; }
      .cyan { fill: #ecfeff; stroke: #0891b2; stroke-width: 2; }
      .gray { fill: #f8fafc; stroke: #64748b; stroke-width: 1.6; }
      .line { stroke: #334155; stroke-width: 2.8; fill: none; marker-end: url(#arrow); }
      .feedback { stroke: #c2410c; stroke-width: 2.4; fill: none; stroke-dasharray: 7 5; marker-end: url(#arrow-orange); }
      .thin { stroke: #94a3b8; stroke-width: 1.6; fill: none; }
      .dashed { stroke: #dc2626; stroke-width: 2; fill: none; stroke-dasharray: 7 5; }
      .cardText { font: 700 13px Arial, Helvetica, sans-serif; fill: #1e40af; }
      .bubble { fill: #ffffff; stroke: #64748b; stroke-width: 1.7; }
      .mutedBand { fill: #f1f5f9; stroke: #cbd5e1; stroke-width: 1.4; }
      .stageLabel { font: 700 15px Arial, Helvetica, sans-serif; fill: #0f172a; }
    </style>
  </defs>
  <rect width="1500" height="700" fill="#ffffff" />
  <text x="750" y="42" text-anchor="middle" class="title">Verifiable Reasoning When Teammates Cannot Talk</text>
  <text x="750" y="72" text-anchor="middle" class="subtitle">Guandan compresses mixed-motive cooperation into public actions; our verifier turns hidden intent claims into auditable evidence.</text>

  <rect x="70" y="106" width="615" height="215" rx="18" class="panel" />
  <text x="96" y="136" class="kicker">REFERENCE SETTING</text>
  <text x="96" y="163" class="panel-title">A. Explicit communication</text>
  <rect x="107" y="187" width="115" height="58" rx="16" class="bubble" />
  <text x="164" y="211" text-anchor="middle" class="small">I will</text>
  <text x="164" y="229" text-anchor="middle" class="small">support you</text>
  <path d="M196,244 L226,263" stroke="#64748b" stroke-width="1.7" fill="none" />
  <circle cx="270" cy="245" r="25" class="blue" />
  <text x="270" y="250" text-anchor="middle" class="label">ally</text>
  <circle cx="390" cy="245" r="25" class="blue" />
  <text x="390" y="250" text-anchor="middle" class="label">LLM</text>
  <rect x="432" y="209" width="214" height="74" rx="14" class="green" />
  <text x="539" y="236" text-anchor="middle" class="box-title">Intent is stated</text>
  <text x="539" y="259" text-anchor="middle" class="small">can cite messages</text>
  <path d="M295,245 H358" class="line" />
  <path d="M415,245 H435" class="line" />

  <rect x="815" y="106" width="615" height="215" rx="18" class="panel" />
  <text x="841" y="136" class="kicker">OUR SETTING</text>
  <text x="841" y="163" class="panel-title">B. Zero-communication play</text>
  <ellipse cx="1025" cy="250" rx="76" ry="32" class="mutedBand" />
  <text x="1025" y="246" text-anchor="middle" class="label">public table</text>
  <text x="1025" y="264" text-anchor="middle" class="tiny">lead / pass / beat</text>
  <circle cx="1025" cy="195" r="24" class="blue" />
  <text x="1025" y="200" text-anchor="middle" class="label">ally</text>
  <circle cx="1025" cy="305" r="24" class="blue" />
  <text x="1025" y="310" text-anchor="middle" class="label">LLM</text>
  <circle cx="919" cy="250" r="22" class="red" />
  <text x="919" y="255" text-anchor="middle" class="small">opp.</text>
  <circle cx="1131" cy="250" r="22" class="red" />
  <text x="1131" y="255" text-anchor="middle" class="small">opp.</text>
  <path d="M1025,219 V281" class="thin" />
  <path d="M941,250 H979" class="thin" />
  <path d="M1071,250 H1109" class="thin" />
  <rect x="1160" y="174" width="104" height="34" rx="11" class="red" />
  <circle cx="1178" cy="191" r="9" fill="none" stroke="#dc2626" stroke-width="2.1" />
  <path d="M1172,185 L1184,197" stroke="#dc2626" stroke-width="2.1" />
  <text x="1225" y="196" text-anchor="middle" style="font: 700 13px Arial, Helvetica, sans-serif; fill: #991b1b;">no chat</text>
  <rect x="1232" y="209" width="178" height="74" rx="14" class="orange" />
  <text x="1321" y="235" text-anchor="middle" class="box-title">Intent is latent</text>
  <text x="1321" y="259" text-anchor="middle" class="small">actions signal intent</text>
  <path d="M1153,250 H1234" class="line" />

  <text x="750" y="352" text-anchor="middle" class="stageLabel">Evaluation pipeline: from one decision packet to same-id verifier evidence</text>
  <path d="M750,322 V364" class="line" />

  <rect x="60" y="382" width="285" height="220" rx="18" class="panel" />
  <text x="84" y="414" class="kicker">STATE</text>
  <text x="84" y="442" class="panel-title">C. Decision packet</text>
  <rect x="90" y="466" width="225" height="72" rx="14" class="subpanel" />
  <text x="112" y="492" class="box-title">Observable evidence</text>
  <text x="112" y="515" class="text">history, roles, counts</text>
  <text x="112" y="534" class="text">legal candidates A_t</text>
  <rect x="90" y="554" width="225" height="34" rx="10" class="red" />
  <text x="202" y="576" text-anchor="middle" class="small">private cards stay private</text>

  <rect x="392" y="382" width="285" height="220" rx="18" class="panel" />
  <text x="416" y="414" class="kicker">CONTRACT</text>
  <text x="416" y="442" class="panel-title">D. Structured trace</text>
  <rect x="420" y="466" width="228" height="106" rx="14" class="orange" />
  <text x="534" y="491" text-anchor="middle" class="box-title">LLM trace r_t</text>
  <text x="454" y="516" class="label">action</text>
  <text x="548" y="516" class="text">a_t</text>
  <text x="454" y="541" class="label">beliefs</text>
  <text x="548" y="541" class="text">agents</text>
  <text x="454" y="566" class="label">evidence</text>
  <text x="548" y="566" class="text">public ids</text>
  <text x="534" y="594" text-anchor="middle" class="small">rationale becomes commitments</text>

  <rect x="724" y="382" width="285" height="220" rx="18" class="panel" />
  <text x="748" y="414" class="kicker">VERIFIER</text>
  <text x="748" y="442" class="panel-title">E. Rule-grounded checks</text>
  <rect x="756" y="466" width="220" height="62" rx="14" fill="#ffffff" stroke="#334155" stroke-width="2" />
  <text x="866" y="492" text-anchor="middle" class="formula">V(d_t, r_t, a_t)</text>
  <text x="866" y="514" text-anchor="middle" class="text">-> labels y_t + issues e_t</text>
  <rect x="746" y="548" width="118" height="42" rx="12" class="green" />
  <text x="805" y="566" text-anchor="middle" class="box-title">Hard</text>
  <text x="805" y="584" text-anchor="middle" class="tiny">rule checks</text>
  <rect x="878" y="548" width="98" height="42" rx="12" class="cyan" />
  <text x="927" y="566" text-anchor="middle" class="box-title">Soft</text>
  <text x="927" y="584" text-anchor="middle" class="tiny">strategic fit</text>

  <rect x="1056" y="382" width="384" height="220" rx="18" class="panel" />
  <text x="1080" y="414" class="kicker">EVIDENCE</text>
  <text x="1080" y="442" class="panel-title">F. Same-id paired revision</text>
  <rect x="1082" y="456" width="114" height="92" rx="14" class="red" />
  <text x="1139" y="476" text-anchor="middle" class="metricTag">before</text>
  <text x="1139" y="522" text-anchor="middle" class="bigMetric">35</text>
  <text x="1139" y="542" text-anchor="middle" class="metricUnit">hard fail.</text>
  <path d="M1208,503 H1238" class="line" />
  <text x="1225" y="484" text-anchor="middle" class="label">-25</text>
  <rect x="1254" y="456" width="114" height="92" rx="14" class="green" />
  <text x="1311" y="476" text-anchor="middle" class="metricTag">after</text>
  <text x="1311" y="522" text-anchor="middle" class="bigMetric">10</text>
  <text x="1311" y="542" text-anchor="middle" class="metricUnit">hard fail.</text>
  <rect x="1088" y="558" width="274" height="34" rx="10" class="cyan" />
  <text x="1225" y="580" text-anchor="middle" class="box-title">32 same-id paired traces</text>
  <path d="M1225,604 C1015,628 760,630 536,613" class="feedback" />
  <text x="1088" y="622" class="box-title">Repaired hard-failure sources</text>
  <rect x="1088" y="638" width="200" height="18" rx="6" fill="#86efac" stroke="#16a34a" />
  <rect x="1288" y="638" width="50" height="18" rx="6" fill="#67e8f9" stroke="#0891b2" />
  <text x="1088" y="672" class="tiny">80% public-history consistency</text>
  <text x="1262" y="672" class="tiny">20% hidden-info discipline</text>
  <text x="1088" y="688" class="tiny">18 schema failures remain end-to-end failures</text>

  <path d="M345,498 H380" class="line" />
  <path d="M677,498 H712" class="line" />
  <path d="M1009,498 H1044" class="line" />
</svg>
