<svg xmlns="http://www.w3.org/2000/svg" width="1500" height="610" viewBox="0 0 1500 610" role="img" aria-labelledby="title desc">
  <title id="title">Verifier-grounded revision architecture</title>
  <desc id="desc">A three-panel architecture diagram showing first-pass trace generation, verifier diagnostic feedback, and bounded revision with paired evidence.</desc>
  <defs>
    <marker id="arrow" markerWidth="12" markerHeight="12" refX="10" refY="6" orient="auto" markerUnits="strokeWidth">
      <path d="M2,2 L10,6 L2,10 Z" fill="#334155" />
    </marker>
    <marker id="arrow-red" markerWidth="12" markerHeight="12" refX="10" refY="6" orient="auto" markerUnits="strokeWidth">
      <path d="M2,2 L10,6 L2,10 Z" fill="#dc2626" />
    </marker>
    <marker id="arrow-orange" markerWidth="12" markerHeight="12" refX="10" refY="6" orient="auto" markerUnits="strokeWidth">
      <path d="M2,2 L10,6 L2,10 Z" fill="#c2410c" />
    </marker>
    <style>
      .title { font: 700 34px Arial, Helvetica, sans-serif; fill: #111827; }
      .subtitle { font: 400 18px Arial, Helvetica, sans-serif; fill: #475569; }
      .panel-title { font: 700 24px Arial, Helvetica, sans-serif; fill: #111827; }
      .box-title { font: 700 20px Arial, Helvetica, sans-serif; fill: #111827; }
      .text { font: 400 16px Arial, Helvetica, sans-serif; fill: #334155; }
      .small { font: 400 14px Arial, Helvetica, sans-serif; fill: #64748b; }
      .tiny { font: 400 12px Arial, Helvetica, sans-serif; fill: #64748b; }
      .panel { fill: #f8fafc; stroke: #cbd5e1; stroke-width: 2; }
      .decision { fill: #f8fafc; stroke: #94a3b8; stroke-width: 2; }
      .model { fill: #eff6ff; stroke: #2563eb; stroke-width: 2.3; }
      .verifier { fill: #ecfdf5; stroke: #059669; stroke-width: 2.3; }
      .artifact { fill: #fff7ed; stroke: #ea580c; stroke-width: 2; }
      .fail { fill: #fef2f2; stroke: #dc2626; stroke-width: 2.3; }
      .metric { fill: #ecfeff; stroke: #0891b2; stroke-width: 2.3; }
      .line { stroke: #334155; stroke-width: 2.7; fill: none; marker-end: url(#arrow); }
      .thin { stroke: #334155; stroke-width: 2; fill: none; marker-end: url(#arrow); }
      .redline { stroke: #dc2626; stroke-width: 2.4; fill: none; marker-end: url(#arrow-red); }
      .feedback { stroke: #c2410c; stroke-width: 2.4; fill: none; stroke-dasharray: 8 6; marker-end: url(#arrow-orange); }
    </style>
  </defs>
  <rect width="1500" height="610" fill="#ffffff" />
  <text x="750" y="48" text-anchor="middle" class="title">Verifier-Grounded Revision Architecture</text>
  <text x="750" y="78" text-anchor="middle" class="subtitle">Diagnostic feedback improves commitments without turning the verifier into an action oracle</text>

  <rect x="35" y="108" width="455" height="405" rx="18" class="panel" />
  <rect x="522.5" y="108" width="455" height="405" rx="18" class="panel" />
  <rect x="1010" y="108" width="455" height="405" rx="18" class="panel" />

  <text x="58" y="150" class="panel-title">A. First-pass trace</text>
  <text x="545.5" y="150" class="panel-title">B. Verifier feedback</text>
  <text x="1033" y="150" class="panel-title">C. Bounded revision</text>

  <g transform="translate(85,190)">
    <rect width="160" height="76" rx="13" class="decision" />
    <text x="80" y="30" text-anchor="middle" class="box-title">Decision</text>
    <text x="80" y="54" text-anchor="middle" class="text">d_t, A_t, h_t, o_t</text>
  </g>
  <g transform="translate(285,178)">
    <rect width="165" height="102" rx="13" class="model" />
    <text x="82.5" y="30" text-anchor="middle" class="box-title">LLM</text>
    <text x="82.5" y="56" text-anchor="middle" class="text">trace r0</text>
    <text x="82.5" y="79" text-anchor="middle" class="text">action a0</text>
  </g>
  <g transform="translate(156,330)">
    <rect width="172" height="68" rx="11" class="artifact" />
    <text x="86" y="29" text-anchor="middle" class="text">schema parse</text>
    <text x="86" y="51" text-anchor="middle" class="small">normalization gate</text>
  </g>
  <g transform="translate(56,428)">
    <rect width="190" height="58" rx="12" class="fail" />
    <text x="95" y="24" text-anchor="middle" class="text">unparseable traces</text>
    <text x="95" y="45" text-anchor="middle" class="small">remain end-to-end failures</text>
  </g>
  <g transform="translate(276,428)">
    <rect width="175" height="58" rx="12" class="metric" />
    <text x="87.5" y="24" text-anchor="middle" class="text">parseable traces</text>
    <text x="87.5" y="45" text-anchor="middle" class="small">enter verifier audit</text>
  </g>
  <path d="M245,228 H275" class="line" />
  <path d="M367,280 C367,315 290,322 250,330" class="thin" />
  <path d="M202,398 C185,410 167,417 151,428" class="redline" />
  <path d="M245,398 C272,410 313,416 361,428" class="line" />

  <g transform="translate(567,182)">
    <rect width="190" height="108" rx="13" class="verifier" />
    <text x="95" y="31" text-anchor="middle" class="box-title">Verifier</text>
    <text x="95" y="58" text-anchor="middle" class="text">hard labels</text>
    <text x="95" y="82" text-anchor="middle" class="text">soft warnings</text>
  </g>
  <g transform="translate(790,182)">
    <rect width="150" height="108" rx="13" class="artifact" />
    <text x="75" y="31" text-anchor="middle" class="box-title">Issue codes</text>
    <text x="75" y="58" text-anchor="middle" class="small">public history</text>
    <text x="75" y="80" text-anchor="middle" class="small">hidden info</text>
  </g>
  <g transform="translate(593,342)">
    <rect width="320" height="80" rx="13" class="decision" />
    <text x="160" y="30" text-anchor="middle" class="box-title">Boundary</text>
    <text x="160" y="55" text-anchor="middle" class="text">labels commitments;</text>
    <text x="160" y="75" text-anchor="middle" class="text">never chooses the move</text>
  </g>
  <path d="M757,236 H780" class="line" />
  <path d="M865,290 C855,316 808,329 753,342" class="feedback" />
  <path d="M650,290 C658,315 681,329 708,342" class="thin" />

  <g transform="translate(1052,180)">
    <rect width="165" height="104" rx="13" class="model" />
    <text x="82.5" y="30" text-anchor="middle" class="box-title">LLM revision</text>
    <text x="82.5" y="57" text-anchor="middle" class="text">same state</text>
    <text x="82.5" y="80" text-anchor="middle" class="text">repair r1</text>
  </g>
  <g transform="translate(1262,180)">
    <rect width="158" height="104" rx="13" class="verifier" />
    <text x="79" y="30" text-anchor="middle" class="box-title">Recheck</text>
    <text x="79" y="57" text-anchor="middle" class="text">same labels</text>
    <text x="79" y="80" text-anchor="middle" class="text">same id</text>
  </g>
  <g transform="translate(1080,345)">
    <rect width="305" height="72" rx="13" class="metric" />
    <text x="152.5" y="29" text-anchor="middle" class="box-title">Paired evidence</text>
    <text x="152.5" y="54" text-anchor="middle" class="text">32 traces: hard failures 35 to 10</text>
  </g>
  <g transform="translate(1074,445)">
    <rect width="317" height="42" rx="11" class="decision" />
    <text x="158.5" y="27" text-anchor="middle" class="small">paired denominator excludes first-pass schema failures</text>
  </g>
  <path d="M1217,232 H1252" class="line" />
  <path d="M1341,284 C1341,314 1298,331 1232,345" class="line" />
  <path d="M1134,284 C1128,310 1148,327 1198,345" class="thin" />

  <path d="M490,362 H522.5" class="feedback" />
  <path d="M977.5,362 H1010" class="feedback" />

  <text x="750" y="565" text-anchor="middle" class="small">The diagram separates reliability accounting from revision evaluation: parse failures stay visible, while only parseable traces enter the paired before/after test.</text>
</svg>
