<svg xmlns="http://www.w3.org/2000/svg" width="1500" height="740" viewBox="0 0 1500 740" role="img" aria-labelledby="title desc">
  <title id="title">Qualitative verifier-attribution case pack</title>
  <desc id="desc">A four-case visual summary showing two repaired verifier failures, one remaining hard failure, and one parse failure outside the paired revision subset.</desc>
  <defs>
    <marker id="arrow" markerWidth="12" markerHeight="12" refX="10" refY="6" orient="auto" markerUnits="strokeWidth">
      <path d="M2,2 L10,6 L2,10 Z" fill="#334155" />
    </marker>
    <style>
      .title { font: 700 34px Arial, Helvetica, sans-serif; fill: #111827; }
      .subtitle { font: 400 18px Arial, Helvetica, sans-serif; fill: #475569; }
      .panel-title { font: 700 20px Arial, Helvetica, sans-serif; fill: #111827; }
      .id { font: 400 13px Arial, Helvetica, sans-serif; fill: #64748b; }
      .label { font: 700 15px Arial, Helvetica, sans-serif; fill: #334155; }
      .text { font: 400 14px Arial, Helvetica, sans-serif; fill: #475569; }
      .tiny { font: 400 12px Arial, Helvetica, sans-serif; fill: #64748b; }
      .panel { fill: #f8fafc; stroke: #cbd5e1; stroke-width: 2; }
      .before { fill: #fef2f2; stroke: #dc2626; stroke-width: 2; }
      .after { fill: #ecfdf5; stroke: #059669; stroke-width: 2; }
      .feedback { fill: #fff7ed; stroke: #ea580c; stroke-width: 2; }
      .neutral { fill: #ffffff; stroke: #94a3b8; stroke-width: 1.8; }
      .arrow { stroke: #334155; stroke-width: 2.5; fill: none; marker-end: url(#arrow); }
      .bad { stroke: #c2410c; stroke-width: 2.5; fill: none; stroke-dasharray: 7 5; marker-end: url(#arrow); }
      .source { font: 400 12px Arial, Helvetica, sans-serif; fill: #64748b; }
    </style>
  </defs>
  <rect width="1500" height="740" fill="#ffffff" />
  <text x="750" y="46" text-anchor="middle" class="title">Qualitative Case Pack: What the Verifier Repairs and What It Does Not</text>
  <text x="750" y="78" text-anchor="middle" class="subtitle">Selected cases come from the paired attribution artifact; action changes are separated from reasoning-trace repairs</text>
  <g transform="translate(72,124)">
    <rect width="628" height="232" rx="18" class="panel" />
    <text x="24" y="34" class="panel-title">A. Public-history repair</text>
    <text x="24" y="58" class="id">pilot-e1-002-turn-1-player-0; action unchanged</text>
    <g>
    <rect x="22" y="84" width="166" height="108" rx="13" class="before" />
    <text x="105" y="112" text-anchor="middle" class="label">before</text>
    <text x="105" y="140" text-anchor="middle" class="text">unknown public id</text>
<text x="105" y="159" text-anchor="middle" class="text">fail -&gt; pass</text>
<text x="105" y="178" text-anchor="middle" class="text">reason stable</text>
  </g>
    <path d="M200,136 H238" class="arrow" />
    <g>
    <rect x="250" y="84" width="166" height="108" rx="13" class="feedback" />
    <text x="333" y="112" text-anchor="middle" class="label">verifier signal</text>
    <text x="333" y="140" text-anchor="middle" class="text">verifier feedback</text>
<text x="333" y="159" text-anchor="middle" class="text">repair evidence</text>
<text x="333" y="178" text-anchor="middle" class="text">same decision id</text>
  </g>
    <path d="M428,136 H458" class="arrow" />
    <g>
    <rect x="470" y="84" width="138" height="108" rx="13" class="after" />
    <text x="539" y="112" text-anchor="middle" class="label">after: pass</text>
    <text x="539" y="140" text-anchor="middle" class="text">no issues</text>
<text x="539" y="159" text-anchor="middle" class="text">partner repaired</text>
<text x="539" y="178" text-anchor="middle" class="text">action unchanged</text>
  </g>
    <text x="24" y="212" class="tiny">public history: fail -&gt; pass; partner: fail -&gt; pass</text>
  </g>
<g transform="translate(748,124)">
    <rect width="628" height="232" rx="18" class="panel" />
    <text x="24" y="34" class="panel-title">B. Hidden-information repair</text>
    <text x="24" y="58" class="id">pilot-e1-013-turn-1-player-0; action unchanged</text>
    <g>
    <rect x="22" y="84" width="166" height="108" rx="13" class="before" />
    <text x="105" y="112" text-anchor="middle" class="label">before</text>
    <text x="105" y="140" text-anchor="middle" class="text">public + hidden</text>
<text x="105" y="159" text-anchor="middle" class="text">fail -&gt; pass</text>
<text x="105" y="178" text-anchor="middle" class="text">reason changes</text>
  </g>
    <path d="M200,136 H238" class="arrow" />
    <g>
    <rect x="250" y="84" width="166" height="108" rx="13" class="feedback" />
    <text x="333" y="112" text-anchor="middle" class="label">verifier signal</text>
    <text x="333" y="140" text-anchor="middle" class="text">verifier feedback</text>
<text x="333" y="159" text-anchor="middle" class="text">repair evidence</text>
<text x="333" y="178" text-anchor="middle" class="text">same decision id</text>
  </g>
    <path d="M428,136 H458" class="arrow" />
    <g>
    <rect x="470" y="84" width="138" height="108" rx="13" class="after" />
    <text x="539" y="112" text-anchor="middle" class="label">after: pass</text>
    <text x="539" y="140" text-anchor="middle" class="text">no issues</text>
<text x="539" y="159" text-anchor="middle" class="text">hidden-info repaired</text>
<text x="539" y="178" text-anchor="middle" class="text">action unchanged</text>
  </g>
    <text x="24" y="212" class="tiny">public history: fail -&gt; pass; hidden info: fail -&gt; pass</text>
  </g>
<g transform="translate(72,394)">
    <rect width="628" height="232" rx="18" class="panel" />
    <text x="24" y="34" class="panel-title">C. Remaining hard failure</text>
    <text x="24" y="58" class="id">pilot-e1-004-turn-1-player-0; action unchanged</text>
    <g>
    <rect x="22" y="84" width="166" height="108" rx="13" class="before" />
    <text x="105" y="112" text-anchor="middle" class="label">before</text>
    <text x="105" y="140" text-anchor="middle" class="text">unknown public id</text>
<text x="105" y="159" text-anchor="middle" class="text">fail -&gt; fail</text>
<text x="105" y="178" text-anchor="middle" class="text">reason stable</text>
  </g>
    <path d="M200,136 H238" class="bad" />
    <g>
    <rect x="250" y="84" width="166" height="108" rx="13" class="feedback" />
    <text x="333" y="112" text-anchor="middle" class="label">verifier signal</text>
    <text x="333" y="140" text-anchor="middle" class="text">verifier feedback</text>
<text x="333" y="159" text-anchor="middle" class="text">repair attempted</text>
<text x="333" y="178" text-anchor="middle" class="text">same issue remains</text>
  </g>
    <path d="M428,136 H458" class="bad" />
    <g>
    <rect x="470" y="84" width="138" height="108" rx="13" class="before" />
    <text x="539" y="112" text-anchor="middle" class="label">after: still fails</text>
    <text x="539" y="140" text-anchor="middle" class="text">unknown public id</text>
<text x="539" y="159" text-anchor="middle" class="text">public history fails</text>
<text x="539" y="178" text-anchor="middle" class="text">action unchanged</text>
  </g>
    <text x="24" y="212" class="tiny">public history: fail -&gt; fail</text>
  </g>
<g transform="translate(748,394)">
    <rect width="628" height="232" rx="18" class="panel" />
    <text x="24" y="34" class="panel-title">D. Parse failure outside paired subset</text>
    <text x="24" y="58" class="id">pilot-e1-000-turn-1-player-0; not revision-eligible</text>
    <g>
    <rect x="22" y="84" width="166" height="108" rx="13" class="neutral" />
    <text x="105" y="112" text-anchor="middle" class="label">raw output</text>
    <text x="105" y="140" text-anchor="middle" class="text">compact action</text>
<text x="105" y="159" text-anchor="middle" class="text">free-form reasoning</text>
<text x="105" y="178" text-anchor="middle" class="text">schema mismatch</text>
  </g>
    <path d="M200,136 H238" class="bad" />
    <g>
    <rect x="250" y="84" width="166" height="108" rx="13" class="feedback" />
    <text x="333" y="112" text-anchor="middle" class="label">verifier signal</text>
    <text x="333" y="140" text-anchor="middle" class="text">schema gate</text>
<text x="333" y="159" text-anchor="middle" class="text">no trace contract</text>
<text x="333" y="178" text-anchor="middle" class="text">excluded from pair</text>
  </g>
    <path d="M428,136 H458" class="bad" />
    <g>
    <rect x="470" y="84" width="138" height="108" rx="13" class="before" />
    <text x="539" y="112" text-anchor="middle" class="label">E2E accounting</text>
    <text x="539" y="140" text-anchor="middle" class="text">counted as</text>
<text x="539" y="159" text-anchor="middle" class="text">parse failure</text>
<text x="539" y="178" text-anchor="middle" class="text">outside revision</text>
  </g>
    <text x="24" y="212" class="tiny">schema: not parseable; paired revision: excluded</text>
  </g>
  <text x="750" y="712" text-anchor="middle" class="source">Source: docs/research/experiments/pilot-verifier-attribution/verifier-attribution.json</text>
</svg>
