<svg xmlns="http://www.w3.org/2000/svg" width="1500" height="560" viewBox="0 0 1500 560" role="img" aria-labelledby="title desc">
  <title id="title">Verifier-grounded multi-agent reasoning teaser</title>
  <desc id="desc">A four-panel paper teaser showing a hidden-state game, auditable LLM commitments, rule-grounded verifier labels, and same-id paired evidence accounting.</desc>
  <defs>
    <marker id="arrow" markerWidth="12" markerHeight="12" refX="10" refY="6" orient="auto" markerUnits="strokeWidth">
      <path d="M2,2 L10,6 L2,10 Z" fill="#334155" />
    </marker>
    <marker id="arrow-orange" markerWidth="12" markerHeight="12" refX="10" refY="6" orient="auto" markerUnits="strokeWidth">
      <path d="M2,2 L10,6 L2,10 Z" fill="#c2410c" />
    </marker>
    <style>
      .title { font: 700 31px Arial, Helvetica, sans-serif; fill: #111827; }
      .subtitle { font: 400 17px Arial, Helvetica, sans-serif; fill: #475569; }
      .panel-title { font: 700 22px Arial, Helvetica, sans-serif; fill: #111827; }
      .label { font: 700 15px Arial, Helvetica, sans-serif; fill: #334155; }
      .text { font: 400 15px Arial, Helvetica, sans-serif; fill: #475569; }
      .small { font: 400 13px Arial, Helvetica, sans-serif; fill: #64748b; }
      .tiny { font: 400 11px Arial, Helvetica, sans-serif; fill: #64748b; }
      .metric { font: 700 38px Arial, Helvetica, sans-serif; fill: #111827; }
      .panel { fill: #f8fafc; stroke: #cbd5e1; stroke-width: 2; }
      .blue { fill: #eff6ff; stroke: #2563eb; stroke-width: 2; }
      .red { fill: #fef2f2; stroke: #dc2626; stroke-width: 2; }
      .orange { fill: #fff7ed; stroke: #ea580c; stroke-width: 2; }
      .green { fill: #ecfdf5; stroke: #059669; stroke-width: 2; }
      .cyan { fill: #ecfeff; stroke: #0891b2; stroke-width: 2; }
      .gray { fill: #f8fafc; stroke: #64748b; stroke-width: 1.6; }
      .line { stroke: #334155; stroke-width: 2.7; fill: none; marker-end: url(#arrow); }
      .feedback { stroke: #c2410c; stroke-width: 2.4; fill: none; stroke-dasharray: 7 5; marker-end: url(#arrow-orange); }
      .dash { stroke: #94a3b8; stroke-width: 1.8; fill: none; stroke-dasharray: 6 5; }
    </style>
  </defs>
  <rect width="1500" height="540" fill="#ffffff" />
  <text x="750" y="42" text-anchor="middle" class="title">Verifier-Grounded Reasoning Turns Game Play into Auditable Evidence</text>
  <text x="750" y="70" text-anchor="middle" class="subtitle">Zero communication makes intent latent; structured commitments and rule-grounded labels make failures inspectable.</text>

  <rect x="45" y="100" width="330" height="360" rx="16" class="panel" />
  <text x="68" y="137" class="panel-title">A. Hidden-state game</text>
  <text x="68" y="164" class="small">Public actions visible; partner intent latent.</text>
  <circle cx="125" cy="225" r="34" class="blue" />
  <text x="125" y="221" text-anchor="middle" class="label">P0</text>
  <text x="125" y="240" text-anchor="middle" class="small">agent</text>
  <circle cx="295" cy="225" r="34" class="blue" />
  <text x="295" y="221" text-anchor="middle" class="label">P2</text>
  <text x="295" y="240" text-anchor="middle" class="small">ally</text>
  <circle cx="125" cy="350" r="34" class="red" />
  <text x="125" y="346" text-anchor="middle" class="label">P1</text>
  <text x="125" y="365" text-anchor="middle" class="small">opp.</text>
  <circle cx="295" cy="350" r="34" class="red" />
  <text x="295" y="346" text-anchor="middle" class="label">P3</text>
  <text x="295" y="365" text-anchor="middle" class="small">opp.</text>
  <path d="M159,225 H261" stroke="#2563eb" stroke-width="4" />
  <path d="M159,350 H261" stroke="#dc2626" stroke-width="4" />
  <rect x="136" y="272" width="148" height="46" rx="10" class="gray" />
  <text x="210" y="292" text-anchor="middle" class="label">public table</text>
  <text x="210" y="311" text-anchor="middle" class="small">lead, pass, beat</text>
  <g>
    <rect x="134" y="412" width="24" height="34" rx="4" class="blue" />
    <rect x="164" y="412" width="24" height="34" rx="4" class="blue" />
    <rect x="194" y="412" width="24" height="34" rx="4" class="blue" />
    <rect x="224" y="412" width="24" height="34" rx="4" class="blue" />
    <rect x="254" y="412" width="24" height="34" rx="4" class="blue" />
  </g>
  <text x="210" y="484" text-anchor="middle" class="small">private cards and intentions stay hidden</text>

  <rect x="410" y="100" width="330" height="360" rx="16" class="panel" />
  <text x="433" y="137" class="panel-title">B. Commitment card</text>
  <text x="433" y="164" class="small">The trace names field-level claims.</text>
  <rect x="448" y="194" width="254" height="158" rx="12" class="orange" />
  <text x="470" y="222" class="label">selectedAction</text>
  <text x="595" y="222" class="text">candidate a_t</text>
  <text x="470" y="250" class="label">teamObjective</text>
  <text x="595" y="250" class="text">help partner</text>
  <text x="470" y="278" class="label">partnerBelief</text>
  <text x="595" y="278" class="text">public evidence</text>
  <text x="470" y="306" class="label">opponentBelief</text>
  <text x="595" y="306" class="text">bounded inf.</text>
  <text x="470" y="334" class="label">risk</text>
  <text x="595" y="334" class="text">hand-count risk</text>
  <rect x="448" y="386" width="254" height="48" rx="10" class="red" />
  <text x="575" y="407" text-anchor="middle" class="text">free-form rationale is not enough</text>
  <text x="575" y="426" text-anchor="middle" class="small">fields become auditable evidence</text>

  <rect x="775" y="100" width="330" height="360" rx="16" class="panel" />
  <text x="798" y="137" class="panel-title">C. Verifier labels</text>
  <text x="798" y="164" class="small">Labels separate invalid traces from weak play.</text>
  <rect x="812" y="198" width="120" height="112" rx="12" class="green" />
  <text x="872" y="224" text-anchor="middle" class="label">hard labels</text>
  <text x="872" y="250" text-anchor="middle" class="small">legal action</text>
  <text x="872" y="271" text-anchor="middle" class="small">public history</text>
  <text x="872" y="292" text-anchor="middle" class="small">hidden-info</text>
  <rect x="950" y="198" width="120" height="112" rx="12" class="cyan" />
  <text x="1010" y="224" text-anchor="middle" class="label">soft labels</text>
  <text x="1010" y="250" text-anchor="middle" class="small">partner</text>
  <text x="1010" y="271" text-anchor="middle" class="small">opponent</text>
  <text x="1010" y="292" text-anchor="middle" class="small">objective</text>
  <rect x="812" y="350" width="258" height="56" rx="11" class="red" />
  <text x="941" y="374" text-anchor="middle" class="text">issue codes explain failures</text>
  <text x="941" y="394" text-anchor="middle" class="small">rules diagnose; they do not choose actions</text>

  <rect x="1140" y="100" width="315" height="360" rx="16" class="panel" />
  <text x="1163" y="137" class="panel-title">D. Paired evidence</text>
  <text x="1163" y="164" class="small">Same decision ids before and after feedback.</text>
  <rect x="1178" y="202" width="104" height="96" rx="14" class="red" />
  <text x="1230" y="228" text-anchor="middle" class="small">before</text>
  <text x="1230" y="270" text-anchor="middle" class="metric">35</text>
  <text x="1230" y="288" text-anchor="middle" class="tiny">hard failures</text>
  <path d="M1291,250 H1346" class="line" />
  <text x="1318" y="230" text-anchor="middle" class="label">-25</text>
  <rect x="1356" y="202" width="76" height="96" rx="14" class="green" />
  <text x="1394" y="228" text-anchor="middle" class="small">after</text>
  <text x="1394" y="270" text-anchor="middle" class="metric">10</text>
  <text x="1394" y="288" text-anchor="middle" class="tiny">hard</text>
  <rect x="1178" y="336" width="254" height="50" rx="11" class="green" />
  <text x="1305" y="357" text-anchor="middle" class="label">32 parseable paired traces</text>
  <text x="1305" y="377" text-anchor="middle" class="small">schema failures remain end-to-end failures</text>
  <rect x="1178" y="411" width="254" height="38" rx="10" class="cyan" />
  <text x="1305" y="435" text-anchor="middle" class="small">main repairs: public history and hidden-info</text>

  <path d="M375,280 H400" class="line" />
  <text x="387" y="260" text-anchor="middle" class="tiny">prompt</text>
  <path d="M740,280 H765" class="line" />
  <text x="752" y="260" text-anchor="middle" class="tiny">audit</text>
  <path d="M1105,280 H1130" class="line" />
  <text x="1117" y="260" text-anchor="middle" class="tiny">revise</text>
  <path d="M1168,392 C1015,516 688,516 546,440" class="feedback" />
  <text x="842" y="520" text-anchor="middle" class="label">feedback revises commitments, while the verifier remains an evaluator rather than an action oracle</text>
</svg>
